<?xml version="1.0" encoding="utf-8"?>
<!-- Generator: Adobe Illustrator 16.0.0, SVG Export Plug-In . SVG Version: 6.00 Build 0)  -->
<!DOCTYPE svg PUBLIC "-//W3C//DTD SVG 1.1//EN" "http://www.w3.org/Graphics/SVG/1.1/DTD/svg11.dtd">
<svg version="1.1" id="Layer_1" xmlns="http://www.w3.org/2000/svg" xmlns:xlink="http://www.w3.org/1999/xlink" x="0px" y="0px"
	 width="173.044px" height="31.857px" viewBox="0 0 173.044 31.857" enable-background="new 0 0 173.044 31.857"
	 xml:space="preserve">
<g>
	<g>
		<path fill="#FFFFFF" d="M171.916,31.857H1.128C0.504,31.857,0,31.354,0,30.729V1.127C0,0.504,0.504,0,1.128,0h170.788
			c0.623,0,1.128,0.504,1.128,1.127v29.603C173.044,31.354,172.539,31.857,171.916,31.857z M2.255,29.601h168.532V2.256H2.255
			V29.601z"/>
	</g>
	<g>
		<path fill="#FFFFFF" d="M20.627,12.688c0-1.229-0.082-2.261-1.481-2.261c-1.648,0-2.318,1.228-2.318,3.047v8.996
			c0,0.588-0.42,1.119-1.062,1.119c-0.616,0-1.062-0.531-1.062-1.119v-9.834c0-1.177-0.224-2.209-1.398-2.209
			c-1.647,0-2.178,1.257-2.178,3.047v8.996c0,0.588-0.447,1.119-1.063,1.119C9.45,23.589,9,23.058,9,22.47V9.141
			C9,8.552,9.393,8.05,10.036,8.05c0.615,0,1.062,0.502,1.062,1.091v0.197c0.476-0.56,1.51-1.036,2.264-1.036
			c1.229,0,2.124,0.614,2.711,1.425c0.781-1.007,2.04-1.425,3.158-1.425c2.934,0,3.494,2.235,3.494,4.303v9.865
			c0,0.643-0.446,1.092-1.062,1.092c-0.643,0-1.036-0.449-1.036-1.092V12.688z"/>
	</g>
	<g>
		<path fill="#FFFFFF" d="M37.311,13.556c0-1.369-0.558-3.073-3.159-3.073c-2.012,0-3.185,1.117-3.185,3.073v4.527
			c0,1.398,0.559,3.102,3.185,3.102c1.985,0,3.159-1.145,3.159-3.102V13.556z M34.151,23.338c-3.324,0-5.364-1.985-5.364-5.255
			v-4.527c0-3.186,2.094-5.254,5.364-5.254c3.298,0,5.339,2.012,5.339,5.254v4.527C39.491,21.297,37.395,23.338,34.151,23.338"/>
	</g>
	<g>
		<path fill="#FFFFFF" d="M54.105,13.556c0-1.369-0.587-3.073-3.158-3.073c-1.845,0-3.241,1.229-3.241,3.016v8.944
			c0,0.644-0.504,1.091-1.092,1.091c-0.614,0-1.062-0.447-1.062-1.091V9.196c0-0.587,0.447-1.09,1.062-1.09
			c0.588,0,1.092,0.503,1.092,1.09v0.392c0.781-0.896,2.29-1.286,3.241-1.286c3.297,0,5.311,2.012,5.311,5.254v8.887
			c0,0.644-0.502,1.091-1.091,1.091c-0.643,0-1.062-0.447-1.062-1.091V13.556z"/>
	</g>
	<g>
		<path fill="#FFFFFF" d="M70.845,13.556c0-1.369-0.56-3.073-3.159-3.073c-2.012,0-3.187,1.117-3.187,3.073v4.527
			c0,1.398,0.561,3.102,3.187,3.102c1.983,0,3.159-1.145,3.159-3.102V13.556z M67.686,23.338c-3.327,0-5.366-1.985-5.366-5.255
			v-4.527c0-3.186,2.096-5.254,5.366-5.254c3.298,0,5.338,2.012,5.338,5.254v4.527C73.024,21.297,70.927,23.338,67.686,23.338"/>
	</g>
	<g>
		<path fill="#FFFFFF" d="M92.177,10.482c-1.313,0-2.905,0.279-2.905,1.983c0,0.531,0.502,1.201,1.256,1.397l4.276,1.173
			c1.789,0.504,2.907,1.956,2.907,3.885c0,3.354-2.432,4.387-5.478,4.387c-3.13,0-5.366-1.45-5.394-4.387
			c0-0.56,0.531-1.09,1.09-1.09c0.586,0,1.091,0.53,1.091,1.09c0.026,1.623,1.425,2.151,3.213,2.151
			c1.481,0,3.269-0.224,3.269-2.151c0-0.838-0.529-1.536-1.367-1.788l-4.277-1.202c-1.648-0.474-2.739-1.761-2.739-3.465
			c0-3.047,2.348-4.136,5.115-4.136c3.187,0,5.31,1.425,5.364,4.357c0,0.616-0.501,1.065-1.089,1.065
			c-0.642,0-1.062-0.449-1.062-1.065C95.391,11.151,94.051,10.482,92.177,10.482"/>
	</g>
	<g>
		<path fill="#FFFFFF" d="M112.187,13.556c0-1.956-1.175-3.073-3.187-3.073c-2.6,0-3.157,1.704-3.157,3.073v4.527
			c0,1.957,1.171,3.075,3.157,3.075c2.6,0,3.187-1.677,3.187-3.075V13.556z M103.69,30.018V9.196c0-0.587,0.418-1.09,1.033-1.09
			c0.587,0,1.091,0.503,1.091,1.09v0.251c0.726-0.728,2.207-1.146,3.186-1.146c3.271,0,5.338,2.068,5.338,5.254v4.527
			c0,3.27-2.012,5.283-5.338,5.283c-1.09,0-2.375-0.337-3.186-1.26v7.911"/>
	</g>
	<g>
		<path fill="#FFFFFF" d="M128.98,13.556c0-1.369-0.615-3.073-3.213-3.073c-2.014,0-3.186,1.117-3.186,3.073v4.527
			c0,1.398,0.558,3.075,3.186,3.075c1.983,0,3.213-1.09,3.213-3.075V13.556z M130.07,8.106c0.561,0,1.062,0.503,1.062,1.062V22.47
			c0,0.616-0.502,1.063-1.062,1.063c-0.614,0-1.062-0.447-1.062-1.063v-0.278c-0.781,0.753-2.262,1.175-3.24,1.175
			c-3.326,0-5.395-2.014-5.395-5.283v-4.527c0-3.186,2.125-5.254,5.395-5.254c1.005,0,2.459,0.418,3.24,1.174V9.168
			C129.008,8.609,129.456,8.106,130.07,8.106"/>
	</g>
	<g>
		<path fill="#FFFFFF" d="M145.69,13.246c-0.11-1.283-0.698-2.764-3.156-2.764c-2.014,0-3.187,1.117-3.187,3.073v4.527
			c0,1.398,0.559,3.075,3.187,3.075c1.899,0,3.046-1.007,3.156-2.713c0-0.529,0.505-1.117,1.09-1.117
			c0.587,0,1.062,0.588,1.091,1.117c-0.252,2.907-2.32,4.921-5.337,4.921c-3.326,0-5.367-2.014-5.367-5.283v-4.527
			c0-3.186,2.096-5.254,5.367-5.254c3.13,0,5.226,1.901,5.337,4.893c0,0.584-0.475,1.088-1.118,1.088S145.69,13.919,145.69,13.246"
			/>
	</g>
	<g>
		<path fill="#FFFFFF" d="M162.486,13.556c0-1.369-0.616-3.073-3.187-3.073c-2.013,0-3.187,1.117-3.187,3.073v0.532h6.373V13.556z
			 M164.639,16.295h-8.525v1.788c0,1.398,0.559,3.075,3.187,3.075c1.9,0,3.157-1.147,3.157-2.435c0-0.5,0.504-1.089,1.09-1.089
			c0.616,0,1.092,0.561,1.092,1.147c0,2.43-2.376,4.584-5.339,4.584c-3.325,0-5.337-2.014-5.337-5.283v-4.527
			c0-3.186,2.066-5.254,5.337-5.254c3.298,0,5.339,2.012,5.339,5.254V16.295z"/>
	</g>
	<g>
		<path fill="#FFFFFF" d="M79.818,17.474c0.854,0,1.546-0.69,1.546-1.545c0-0.854-0.692-1.547-1.546-1.547
			c-0.855,0-1.547,0.693-1.547,1.547C78.271,16.783,78.963,17.474,79.818,17.474"/>
	</g>
</g>
</svg>
